<?xml version="1.0" encoding="UTF-8"?>
<svg xmlns="http://www.w3.org/2000/svg" xmlns:xlink="http://www.w3.org/1999/xlink" width="35px" height="32px" viewBox="0 0 35 32" version="1.1">
<g id="surface1">
<path style=" stroke:none;fill-rule:nonzero;fill:rgb(0%,0%,0%);fill-opacity:1;" d="M 0.0625 24.832031 C 0.167969 24.660156 0.339844 24.648438 0.574219 24.800781 C 5.875 27.890625 11.644531 29.4375 17.882812 29.4375 C 22.039062 29.4375 26.144531 28.660156 30.195312 27.101562 C 30.300781 27.058594 30.457031 26.996094 30.65625 26.910156 C 30.859375 26.824219 31 26.761719 31.085938 26.71875 C 31.40625 26.589844 31.652344 26.65625 31.835938 26.910156 C 32.015625 27.167969 31.957031 27.402344 31.660156 27.613281 C 31.277344 27.890625 30.789062 28.210938 30.195312 28.574219 C 28.371094 29.664062 26.335938 30.503906 24.085938 31.101562 C 21.835938 31.699219 19.640625 32 17.5 32 C 14.191406 32 11.0625 31.417969 8.113281 30.253906 C 5.164062 29.089844 2.523438 27.453125 0.191406 25.34375 C 0.0625 25.234375 0 25.128906 0 25.023438 C 0 24.957031 0.0195312 24.894531 0.0625 24.832031 Z M 9.640625 15.710938 C 9.640625 14.238281 10 12.980469 10.722656 11.9375 C 11.445312 10.890625 12.429688 10.101562 13.683594 9.570312 C 14.828125 9.078125 16.238281 8.726562 17.914062 8.511719 C 18.488281 8.449219 19.417969 8.363281 20.714844 8.257812 L 20.714844 7.714844 C 20.714844 6.347656 20.566406 5.429688 20.269531 4.960938 C 19.824219 4.320312 19.121094 4 18.167969 4 L 17.914062 4 C 17.214844 4.066406 16.609375 4.289062 16.101562 4.671875 C 15.589844 5.058594 15.261719 5.589844 15.113281 6.273438 C 15.027344 6.699219 14.816406 6.945312 14.476562 7.007812 L 10.816406 6.5625 C 10.457031 6.476562 10.277344 6.285156 10.277344 5.984375 C 10.277344 5.921875 10.289062 5.847656 10.308594 5.761719 C 10.667969 3.863281 11.554688 2.453125 12.964844 1.539062 C 14.375 0.621094 16.027344 0.109375 17.914062 0 L 18.710938 0 C 21.128906 0 23.015625 0.632812 24.371094 1.890625 C 24.585938 2.105469 24.78125 2.332031 24.960938 2.578125 C 25.140625 2.824219 25.285156 3.042969 25.390625 3.234375 C 25.496094 3.425781 25.59375 3.703125 25.675781 4.066406 C 25.761719 4.429688 25.824219 4.679688 25.867188 4.816406 C 25.910156 4.957031 25.941406 5.253906 25.964844 5.714844 C 25.984375 6.171875 25.996094 6.445312 25.996094 6.527344 L 25.996094 14.273438 C 25.996094 14.828125 26.074219 15.332031 26.234375 15.792969 C 26.394531 16.25 26.546875 16.582031 26.695312 16.785156 C 26.84375 16.988281 27.085938 17.3125 27.425781 17.761719 C 27.554688 17.953125 27.617188 18.121094 27.617188 18.273438 C 27.617188 18.441406 27.535156 18.589844 27.363281 18.71875 C 25.601562 20.253906 24.648438 21.085938 24.5 21.214844 C 24.246094 21.40625 23.9375 21.429688 23.578125 21.28125 C 23.28125 21.023438 23.019531 20.777344 22.796875 20.542969 C 22.574219 20.308594 22.414062 20.136719 22.320312 20.03125 C 22.226562 19.925781 22.070312 19.71875 21.859375 19.40625 C 21.648438 19.097656 21.5 18.890625 21.414062 18.785156 C 20.226562 20.085938 19.058594 20.894531 17.914062 21.214844 C 17.191406 21.429688 16.300781 21.535156 15.242188 21.535156 C 13.609375 21.535156 12.265625 21.027344 11.214844 20.015625 C 10.164062 19.003906 9.640625 17.566406 9.640625 15.710938 Z M 15.113281 15.070312 C 15.113281 15.902344 15.320312 16.570312 15.734375 17.070312 C 16.148438 17.574219 16.703125 17.824219 17.40625 17.824219 C 17.46875 17.824219 17.558594 17.8125 17.675781 17.792969 C 17.792969 17.769531 17.871094 17.761719 17.914062 17.761719 C 18.804688 17.523438 19.492188 16.949219 19.980469 16.03125 C 20.214844 15.625 20.390625 15.183594 20.507812 14.703125 C 20.625 14.222656 20.6875 13.835938 20.699219 13.535156 C 20.707031 13.238281 20.714844 12.746094 20.714844 12.066406 L 20.714844 11.265625 C 19.484375 11.265625 18.550781 11.351562 17.914062 11.519531 C 16.046875 12.054688 15.113281 13.238281 15.113281 15.070312 Z M 28.476562 25.375 C 28.519531 25.289062 28.582031 25.203125 28.667969 25.117188 C 29.199219 24.757812 29.707031 24.511719 30.195312 24.382812 C 31 24.167969 31.785156 24.050781 32.550781 24.03125 C 32.761719 24.007812 32.964844 24.019531 33.15625 24.0625 C 34.109375 24.148438 34.683594 24.308594 34.871094 24.542969 C 34.957031 24.671875 35 24.863281 35 25.117188 L 35 25.34375 C 35 26.089844 34.796875 26.96875 34.394531 27.984375 C 33.992188 28.996094 33.429688 29.8125 32.710938 30.429688 C 32.601562 30.515625 32.507812 30.558594 32.421875 30.558594 C 32.378906 30.558594 32.335938 30.546875 32.296875 30.527344 C 32.167969 30.460938 32.136719 30.34375 32.199219 30.175781 C 32.984375 28.320312 33.378906 27.027344 33.378906 26.304688 C 33.378906 26.066406 33.335938 25.898438 33.25 25.789062 C 33.039062 25.535156 32.445312 25.40625 31.46875 25.40625 C 31.109375 25.40625 30.683594 25.429688 30.195312 25.472656 C 29.664062 25.535156 29.175781 25.597656 28.730469 25.664062 C 28.605469 25.664062 28.519531 25.640625 28.476562 25.597656 C 28.433594 25.554688 28.425781 25.511719 28.445312 25.472656 C 28.445312 25.449219 28.457031 25.417969 28.476562 25.375 Z M 28.476562 25.375 "/>
</g>
</svg>
