<?xml version="1.0" encoding="UTF-8"?>
<svg xmlns="http://www.w3.org/2000/svg" xmlns:xlink="http://www.w3.org/1999/xlink" width="40px" height="40px" viewBox="0 0 40 40" version="1.1">
<g id="surface1">
<path style=" stroke:none;fill-rule:nonzero;fill:rgb(0%,0%,0%);fill-opacity:1;" d="M 18.167969 3.5 C 10.5 4.332031 4.332031 10.5 3.5 18 C 2.664062 25.835938 7.167969 32.832031 14 35.5 C 14.5 35.667969 15 35.332031 15 34.667969 L 15 32 C 15 32 14.332031 32.167969 13.5 32.167969 C 11.167969 32.167969 10.164062 30.164062 10 29 C 9.835938 28.335938 9.5 27.832031 9 27.335938 C 8.5 27.167969 8.335938 27.167969 8.335938 27 C 8.335938 26.664062 8.832031 26.664062 9 26.664062 C 10 26.664062 10.835938 27.832031 11.167969 28.335938 C 12 29.667969 13 30 13.5 30 C 14.164062 30 14.667969 29.835938 15 29.667969 C 15.164062 28.5 15.667969 27.335938 16.664062 26.664062 C 12.832031 25.835938 10 23.667969 10 20 C 10 18.167969 10.835938 16.332031 12 15 C 11.832031 14.667969 11.664062 13.832031 11.664062 12.664062 C 11.664062 12 11.664062 11 12.167969 10 C 12.167969 10 14.5 10 16.832031 12.167969 C 17.664062 11.832031 18.832031 11.664062 20 11.664062 C 21.167969 11.664062 22.335938 11.832031 23.335938 12.167969 C 25.5 10 28 10 28 10 C 28.335938 11 28.335938 12 28.335938 12.664062 C 28.335938 14 28.167969 14.667969 28 15 C 29.164062 16.332031 30 18 30 20 C 30 23.667969 27.167969 25.835938 23.335938 26.664062 C 24.332031 27.5 25 29 25 30.5 L 25 34.835938 C 25 35.332031 25.5 35.835938 26.167969 35.667969 C 32.335938 33.167969 36.664062 27.167969 36.664062 20.164062 C 36.664062 10.164062 28.167969 2.335938 18.167969 3.5 Z M 18.167969 3.5 "/>
</g>
</svg>
