<?xml version="1.0" encoding="UTF-8"?>
<svg xmlns="http://www.w3.org/2000/svg" xmlns:xlink="http://www.w3.org/1999/xlink" width="35px" height="35px" viewBox="0 0 35 35" version="1.1">
<g id="surface1">
<path style=" stroke:none;fill-rule:nonzero;fill:rgb(0%,0%,0%);fill-opacity:1;" d="M 15.894531 3.0625 C 9.1875 3.792969 3.792969 9.1875 3.0625 15.75 C 2.332031 22.605469 6.269531 28.730469 12.25 31.0625 C 12.6875 31.207031 13.125 30.917969 13.125 30.332031 L 13.125 28 C 13.125 28 12.542969 28.144531 11.8125 28.144531 C 9.769531 28.144531 8.894531 26.394531 8.75 25.375 C 8.605469 24.792969 8.3125 24.355469 7.875 23.917969 C 7.4375 23.769531 7.292969 23.769531 7.292969 23.625 C 7.292969 23.332031 7.730469 23.332031 7.875 23.332031 C 8.75 23.332031 9.480469 24.355469 9.769531 24.792969 C 10.5 25.957031 11.375 26.25 11.8125 26.25 C 12.394531 26.25 12.832031 26.105469 13.125 25.957031 C 13.269531 24.9375 13.707031 23.917969 14.582031 23.332031 C 11.230469 22.605469 8.75 20.707031 8.75 17.5 C 8.75 15.894531 9.480469 14.292969 10.5 13.125 C 10.355469 12.832031 10.207031 12.105469 10.207031 11.082031 C 10.207031 10.5 10.207031 9.625 10.644531 8.75 C 10.644531 8.75 12.6875 8.75 14.730469 10.644531 C 15.457031 10.355469 16.480469 10.207031 17.5 10.207031 C 18.519531 10.207031 19.542969 10.355469 20.417969 10.644531 C 22.3125 8.75 24.5 8.75 24.5 8.75 C 24.792969 9.625 24.792969 10.5 24.792969 11.082031 C 24.792969 12.25 24.644531 12.832031 24.5 13.125 C 25.519531 14.292969 26.25 15.75 26.25 17.5 C 26.25 20.707031 23.769531 22.605469 20.417969 23.332031 C 21.292969 24.0625 21.875 25.375 21.875 26.6875 L 21.875 30.480469 C 21.875 30.917969 22.3125 31.355469 22.894531 31.207031 C 28.292969 29.019531 32.082031 23.769531 32.082031 17.644531 C 32.082031 8.894531 24.644531 2.042969 15.894531 3.0625 Z M 15.894531 3.0625 "/>
</g>
</svg>
