<?xml version="1.0" encoding="UTF-8"?>
<svg xmlns="http://www.w3.org/2000/svg" xmlns:xlink="http://www.w3.org/1999/xlink" width="32px" height="32px" viewBox="0 0 32 32" version="1.1">
<g id="surface1">
<path style=" stroke:none;fill-rule:nonzero;fill:rgb(0%,0%,0%);fill-opacity:1;" d="M 1.28125 13.441406 C 0.574219 13.441406 0 14.011719 0 14.71875 C 0 15.425781 0.574219 16 1.28125 16 C 1.988281 16 2.558594 15.425781 2.558594 14.71875 C 2.558594 14.011719 1.988281 13.441406 1.28125 13.441406 Z M 6.078125 5.121094 C 5.550781 5.121094 5.121094 5.550781 5.121094 6.078125 C 5.121094 6.609375 5.550781 7.039062 6.078125 7.039062 C 6.609375 7.039062 7.039062 6.609375 7.039062 6.078125 C 7.039062 5.550781 6.609375 5.121094 6.078125 5.121094 Z M 9.601562 0.640625 C 9.246094 0.640625 8.960938 0.925781 8.960938 1.28125 C 8.960938 1.632812 9.246094 1.921875 9.601562 1.921875 C 9.953125 1.921875 10.238281 1.632812 10.238281 1.28125 C 10.238281 0.925781 9.953125 0.640625 9.601562 0.640625 Z M 17.921875 1.28125 C 17.214844 1.28125 16.640625 1.851562 16.640625 2.558594 C 16.640625 3.265625 17.214844 3.839844 17.921875 3.839844 C 18.625 3.839844 19.199219 3.265625 19.199219 2.558594 C 19.199219 1.851562 18.625 1.28125 17.921875 1.28125 Z M 28.160156 8.320312 C 27.453125 8.320312 26.878906 8.894531 26.878906 9.601562 C 26.878906 10.308594 27.453125 10.878906 28.160156 10.878906 C 28.867188 10.878906 29.441406 10.308594 29.441406 9.601562 C 29.441406 8.894531 28.867188 8.320312 28.160156 8.320312 Z M 31.359375 12.800781 C 31.007812 12.800781 30.71875 13.085938 30.71875 13.441406 C 30.71875 13.792969 31.007812 14.078125 31.359375 14.078125 C 31.714844 14.078125 32 13.792969 32 13.441406 C 32 13.085938 31.714844 12.800781 31.359375 12.800781 Z M 29.761719 16 C 29.230469 16 28.800781 16.429688 28.800781 16.960938 C 28.800781 17.488281 29.230469 17.921875 29.761719 17.921875 C 30.289062 17.921875 30.71875 17.488281 30.71875 16.960938 C 30.71875 16.429688 30.289062 16 29.761719 16 Z M 24.320312 26.878906 C 23.613281 26.878906 23.039062 27.453125 23.039062 28.160156 C 23.039062 28.867188 23.613281 29.441406 24.320312 29.441406 C 25.027344 29.441406 25.601562 28.867188 25.601562 28.160156 C 25.601562 27.453125 25.027344 26.878906 24.320312 26.878906 Z M 15.039062 29.441406 C 14.511719 29.441406 14.078125 29.871094 14.078125 30.398438 C 14.078125 30.929688 14.511719 31.359375 15.039062 31.359375 C 15.570312 31.359375 16 30.929688 16 30.398438 C 16 29.871094 15.570312 29.441406 15.039062 29.441406 Z M 21.441406 20.480469 C 20.160156 20.480469 19.839844 19.761719 19.839844 19.199219 C 19.839844 18.753906 20.027344 18.222656 20.160156 17.921875 C 21.519531 14.800781 22.398438 13.519531 22.398438 12.078125 C 22.398438 10.800781 21.640625 10.242188 20.84375 10.242188 C 20.171875 10.242188 19.5625 10.453125 19.105469 10.863281 C 19.078125 10.882812 19.042969 10.875 19.03125 10.84375 C 18.753906 10.117188 18.0625 9.601562 17.242188 9.601562 C 15.960938 9.601562 15.480469 10.878906 14.992188 10.878906 C 14.351562 10.878906 13.5625 10.238281 12.523438 10.238281 C 11.082031 10.238281 10.367188 10.910156 10.0625 11.917969 C 9.832031 12.683594 8.039062 18.457031 7.785156 19.195312 C 7.445312 20.199219 8.011719 21.300781 9.058594 21.65625 C 9.273438 21.730469 9.492188 21.757812 9.707031 21.757812 C 10.53125 21.765625 11.296875 21.28125 11.566406 20.484375 C 11.742188 19.964844 13.570312 15.125 14.042969 13.878906 C 14.140625 13.625 14.386719 13.441406 14.679688 13.441406 C 15.054688 13.441406 15.359375 13.746094 15.359375 14.121094 C 15.359375 14.207031 15.34375 14.289062 15.316406 14.363281 C 15.3125 14.371094 13.660156 18.625 13.535156 18.914062 C 13.472656 19.054688 13.441406 19.203125 13.441406 19.347656 C 13.4375 19.785156 13.6875 20.203125 14.113281 20.386719 C 14.679688 20.632812 15.339844 20.375 15.589844 19.808594 C 15.707031 19.539062 18.613281 13.183594 18.613281 13.183594 C 18.757812 12.859375 19.132812 12.714844 19.457031 12.855469 C 19.695312 12.960938 19.839844 13.191406 19.839844 13.433594 C 19.84375 13.523438 19.824219 13.613281 19.789062 13.699219 C 19.769531 13.742188 17.515625 18.382812 17.480469 18.480469 C 17.328125 18.910156 17.28125 19.28125 17.28125 19.839844 C 17.28125 20.320312 17.519531 22.398438 21.441406 22.398438 C 21.96875 22.398438 22.398438 21.96875 22.398438 21.441406 C 22.398438 20.910156 21.96875 20.480469 21.441406 20.480469 Z M 21.441406 20.480469 "/>
<path style="fill:none;stroke-width:2;stroke-linecap:butt;stroke-linejoin:round;stroke:rgb(0%,0%,0%);stroke-opacity:1;stroke-miterlimit:10;" d="M 42.999268 22.497559 C 42.999268 20.092773 41.107178 18.145752 38.73291 18.023682 C 38.903809 17.376709 39.001465 16.699219 39.001465 15.997314 C 39.001465 11.584473 35.418701 8.001709 30.999756 8.001709 C 29.718018 8.001709 28.515625 8.306885 27.441406 8.843994 C 25.927734 7.69043 24.047852 7.000732 21.99707 7.000732 C 17.712402 7.000732 14.135742 9.997559 13.226318 14.013672 C 9.765625 14.160156 7.000732 17.004395 7.000732 20.501709 C 7.000732 21.807861 7.391357 23.022461 8.056641 24.047852 C 6.787109 25.311279 5.999756 27.062988 5.999756 28.997803 C 5.999756 32.556152 8.654785 35.48584 12.091064 35.931396 C 12.036133 36.2854 11.999512 36.639404 11.999512 36.999512 C 11.999512 40.863037 15.136719 44.000244 19.000244 44.000244 C 21.014404 44.000244 22.821045 43.145752 24.09668 41.784668 C 25.10376 43.127441 26.696777 44.000244 28.497314 44.000244 C 31.390381 44.000244 33.758545 41.766357 33.978271 38.928223 C 34.313965 38.970947 34.655762 39.001465 34.997559 39.001465 C 39.416504 39.001465 42.999268 35.418701 42.999268 30.999756 C 42.999268 29.119873 42.346191 27.392578 41.259766 26.031494 C 42.30957 25.20752 42.999268 23.937988 42.999268 22.497559 Z M 42.999268 22.497559 " transform="matrix(0.64,0,0,0.64,0,0)"/>
<path style=" stroke:none;fill-rule:nonzero;fill:rgb(0%,0%,0%);fill-opacity:1;" d="M 5.121094 24.960938 C 4.765625 24.960938 4.480469 25.246094 4.480469 25.601562 C 4.480469 25.953125 4.765625 26.238281 5.121094 26.238281 C 5.472656 26.238281 5.761719 25.953125 5.761719 25.601562 C 5.761719 25.246094 5.472656 24.960938 5.121094 24.960938 Z M 5.121094 24.960938 "/>
</g>
</svg>
