<?xml version="1.0" encoding="UTF-8"?>
<svg xmlns="http://www.w3.org/2000/svg" xmlns:xlink="http://www.w3.org/1999/xlink" width="32px" height="32px" viewBox="0 0 32 32" version="1.1">
<g id="surface1">
<path style=" stroke:none;fill-rule:nonzero;fill:rgb(92.941176%,10.980392%,25.098039%);fill-opacity:1;" d="M 22.871094 27.796875 C 22.238281 28.257812 22.078125 29.167969 22.515625 29.832031 C 22.957031 30.5 23.824219 30.664062 24.460938 30.207031 C 25.09375 29.746094 25.253906 28.835938 24.816406 28.167969 C 24.375 27.503906 23.507812 27.339844 22.871094 27.796875 M 14.722656 30.355469 C 14.328125 30.636719 14.230469 31.199219 14.5 31.609375 C 14.773438 32.019531 15.308594 32.125 15.699219 31.839844 C 16.089844 31.554688 16.191406 30.992188 15.917969 30.582031 C 15.648438 30.171875 15.113281 30.070312 14.722656 30.355469 M 4.816406 26.15625 C 4.890625 26.507812 5.21875 26.730469 5.554688 26.65625 C 5.890625 26.578125 6.101562 26.234375 6.03125 25.882812 C 5.957031 25.53125 5.628906 25.308594 5.292969 25.386719 C 4.957031 25.460938 4.746094 25.808594 4.816406 26.15625 M 2.433594 16.105469 C 2.847656 15.46875 2.695312 14.601562 2.085938 14.164062 C 1.480469 13.726562 0.648438 13.890625 0.234375 14.527344 C -0.183594 15.164062 -0.0273438 16.03125 0.578125 16.46875 C 1.1875 16.90625 2.015625 16.742188 2.433594 16.105469 M 6.992188 7.09375 C 7.449219 6.761719 7.566406 6.101562 7.246094 5.617188 C 6.929688 5.136719 6.300781 5.015625 5.839844 5.347656 C 5.378906 5.683594 5.265625 6.34375 5.582031 6.824219 C 5.898438 7.308594 6.53125 7.429688 6.992188 7.09375 M 10.007812 0.585938 C 9.925781 0.183594 9.546875 -0.0703125 9.164062 0.015625 C 8.78125 0.101562 8.539062 0.5 8.621094 0.898438 C 8.703125 1.300781 9.082031 1.554688 9.464844 1.46875 C 9.847656 1.382812 10.089844 0.988281 10.007812 0.585938 M 19.042969 1.566406 C 18.667969 0.910156 17.855469 0.699219 17.226562 1.09375 C 16.601562 1.488281 16.398438 2.339844 16.773438 2.996094 C 17.152344 3.652344 17.964844 3.863281 18.589844 3.46875 C 19.214844 3.074219 19.417969 2.222656 19.042969 1.566406 M 25.535156 11.480469 C 25.632812 10.101562 25.304688 8.6875 24.5 7.460938 C 22.925781 5.078125 20.058594 4.203125 17.574219 5.148438 C 15.355469 3.65625 12.417969 3.59375 10.117188 5.261719 C 8.949219 6.109375 8.117188 7.269531 7.652344 8.558594 C 6.972656 8.65625 6.304688 8.894531 5.703125 9.328125 C 3.714844 10.769531 3.1875 13.578125 4.449219 15.707031 C 2.738281 17.351562 2.34375 20.089844 3.644531 22.203125 C 4.417969 23.457031 5.628906 24.214844 6.929688 24.4375 C 6.953125 25.460938 7.246094 26.488281 7.84375 27.394531 C 9.476562 29.871094 12.714844 30.488281 15.078125 28.777344 C 15.167969 28.714844 15.234375 28.628906 15.320312 28.558594 C 16.636719 29.792969 18.613281 29.996094 20.128906 28.898438 C 20.9375 28.3125 21.457031 27.460938 21.679688 26.535156 C 22.867188 26.578125 24.074219 26.265625 25.125 25.503906 C 27.648438 23.675781 28.324219 20.105469 26.710938 17.410156 C 28.003906 16.265625 28.285156 14.261719 27.289062 12.785156 C 26.847656 12.125 26.21875 11.691406 25.535156 11.480469 M 28.382812 10.628906 C 28.894531 10.257812 29.023438 9.523438 28.671875 8.988281 C 28.316406 8.449219 27.613281 8.316406 27.101562 8.6875 C 26.589844 9.058594 26.460938 9.792969 26.816406 10.328125 C 27.171875 10.867188 27.871094 11 28.382812 10.628906 M 30.566406 17.539062 C 30.46875 17.0625 30.019531 16.761719 29.570312 16.863281 C 29.117188 16.96875 28.828125 17.433594 28.925781 17.910156 C 29.023438 18.382812 29.46875 18.683594 29.921875 18.582031 C 30.375 18.480469 30.664062 18.011719 30.566406 17.539062 M 31.984375 13.304688 C 31.914062 12.949219 31.582031 12.726562 31.246094 12.804688 C 30.910156 12.878906 30.695312 13.226562 30.765625 13.578125 C 30.839844 13.933594 31.171875 14.15625 31.507812 14.082031 C 31.84375 14.003906 32.058594 13.65625 31.984375 13.304688 "/>
<path style=" stroke:none;fill-rule:nonzero;fill:rgb(100%,100%,100%);fill-opacity:1;" d="M 22.511719 22.027344 C 22.320312 20.738281 20.042969 21.730469 19.902344 20.320312 C 19.703125 18.316406 22.546875 13.996094 22.320312 12.320312 C 22.121094 10.8125 21.148438 10.496094 20.304688 10.480469 C 19.484375 10.464844 19.269531 10.601562 18.992188 10.769531 C 18.832031 10.867188 18.601562 11.058594 18.28125 10.742188 C 18.070312 10.53125 17.929688 10.382812 17.707031 10.195312 C 17.589844 10.097656 17.410156 9.976562 17.105469 9.929688 C 16.800781 9.882812 16.40625 9.929688 16.152344 10.042969 C 15.902344 10.15625 15.707031 10.351562 15.5 10.542969 C 15.292969 10.730469 14.769531 11.34375 14.28125 11.117188 C 14.070312 11.019531 13.351562 10.644531 12.835938 10.410156 C 11.835938 9.957031 10.398438 10.691406 9.878906 11.65625 C 9.109375 13.09375 7.585938 18.738281 7.355469 19.484375 C 6.835938 21.15625 8.007812 22.519531 9.589844 22.441406 C 10.261719 22.40625 10.703125 22.152344 11.128906 21.347656 C 11.371094 20.882812 13.664062 14.605469 13.835938 14.304688 C 13.957031 14.085938 14.371094 13.796875 14.722656 13.984375 C 15.070312 14.171875 15.140625 14.566406 15.089844 14.933594 C 15.003906 15.53125 13.386719 19.359375 13.324219 19.792969 C 13.21875 20.53125 13.554688 20.941406 14.285156 20.980469 C 14.785156 21.007812 15.28125 20.820312 15.679688 20.039062 C 15.898438 19.601562 18.449219 14.25 18.675781 13.890625 C 18.921875 13.5 19.121094 13.371094 19.375 13.382812 C 19.570312 13.394531 19.886719 13.445312 19.804688 14.0625 C 19.730469 14.664062 17.679688 18.59375 17.464844 19.554688 C 17.175781 20.839844 17.847656 22.144531 18.957031 22.714844 C 19.667969 23.078125 22.761719 23.699219 22.511719 22.027344 "/>
</g>
</svg>
