<?xml version="1.0" encoding="UTF-8"?>
<svg xmlns="http://www.w3.org/2000/svg" xmlns:xlink="http://www.w3.org/1999/xlink" width="32px" height="32px" viewBox="0 0 32 32" version="1.1">
<g id="surface1">
<path style=" stroke:none;fill-rule:nonzero;fill:rgb(0%,0%,0%);fill-opacity:1;" d="M 13.910156 17.578125 C 13.910156 16.707031 13.199219 16 12.332031 16 C 11.460938 16 10.753906 16.707031 10.753906 17.578125 C 10.753906 18.449219 11.457031 19.148438 12.332031 19.15625 C 13.199219 19.15625 13.910156 18.449219 13.910156 17.578125 Z M 13.910156 17.578125 "/>
<path style=" stroke:none;fill-rule:nonzero;fill:rgb(0%,0%,0%);fill-opacity:1;" d="M 19.289062 21.34375 C 18.328125 22.027344 17.171875 22.363281 15.996094 22.300781 C 14.820312 22.355469 13.664062 22.003906 12.71875 21.308594 C 12.558594 21.179688 12.335938 21.179688 12.175781 21.308594 C 11.996094 21.460938 11.96875 21.730469 12.117188 21.910156 C 13.238281 22.75 14.609375 23.183594 16.011719 23.125 C 17.414062 23.183594 18.785156 22.75 19.90625 21.910156 L 19.90625 21.972656 C 20.078125 21.804688 20.082031 21.523438 19.910156 21.347656 C 19.742188 21.175781 19.460938 21.171875 19.289062 21.34375 Z M 19.289062 21.34375 "/>
<path style=" stroke:none;fill-rule:nonzero;fill:rgb(0%,0%,0%);fill-opacity:1;" d="M 19.621094 16.054688 C 18.753906 16.054688 18.042969 16.761719 18.042969 17.632812 C 18.042969 18.503906 18.753906 19.210938 19.621094 19.210938 L 19.609375 19.269531 C 19.636719 19.269531 19.660156 19.269531 19.6875 19.269531 C 20.558594 19.234375 21.234375 18.503906 21.199219 17.632812 C 21.199219 16.761719 20.492188 16.054688 19.621094 16.054688 Z M 19.621094 16.054688 "/>
<path style=" stroke:none;fill-rule:nonzero;fill:rgb(0%,0%,0%);fill-opacity:1;" d="M 16 0.246094 C 7.300781 0.246094 0.246094 7.300781 0.246094 16 C 0.246094 24.699219 7.300781 31.753906 16 31.753906 C 24.699219 31.753906 31.753906 24.699219 31.753906 16 C 31.753906 7.300781 24.699219 0.246094 16 0.246094 Z M 25.234375 18.09375 C 25.25 18.328125 25.25 18.558594 25.234375 18.789062 C 25.234375 22.320312 21.121094 25.1875 16.050781 25.1875 C 10.980469 25.1875 6.867188 22.316406 6.867188 18.789062 C 6.851562 18.558594 6.851562 18.328125 6.867188 18.09375 C 6.636719 17.992188 6.429688 17.847656 6.25 17.679688 C 5.320312 16.8125 5.277344 15.355469 6.148438 14.429688 C 7.015625 13.5 8.472656 13.457031 9.398438 14.328125 C 11.214844 13.097656 13.347656 12.425781 15.542969 12.390625 L 16.703125 6.921875 C 16.703125 6.917969 16.703125 6.917969 16.703125 6.914062 C 16.761719 6.648438 17.027344 6.484375 17.289062 6.542969 L 21.148438 7.3125 C 21.394531 6.882812 21.84375 6.59375 22.339844 6.542969 C 23.207031 6.449219 23.980469 7.074219 24.074219 7.941406 C 24.167969 8.804688 23.542969 9.582031 22.675781 9.675781 C 21.8125 9.769531 21.035156 9.144531 20.941406 8.277344 L 17.570312 7.570312 L 16.546875 12.484375 C 18.714844 12.53125 20.820312 13.199219 22.613281 14.421875 C 23.023438 14.035156 23.558594 13.804688 24.121094 13.785156 C 25.394531 13.742188 26.460938 14.730469 26.507812 16 C 26.523438 16.886719 26.023438 17.699219 25.234375 18.09375 Z M 25.234375 18.09375 "/>
</g>
</svg>
