<?xml version="1.0" standalone="no"?>
<!DOCTYPE svg PUBLIC "-//W3C//DTD SVG 1.0//EN" "http://www.w3.org/TR/2001/REC-SVG-20010904/DTD/svg10.dtd">
<svg xmlns="http://www.w3.org/2000/svg" xmlns:xlink="http://www.w3.org/1999/xlink" id="body_1" width="48" height="48">

<g transform="matrix(1 0 0 1 0 0)">
    <path d="M38.4 21.68L38.4 16C 35.74 16 33.710003 15.29 32.4 13.91C 31.055481 12.335047 30.302238 10.3405485 30.27 8.27L30.27 8.27L30.27 7.8600006L24.900002 7.7300005L24.900002 30.8C 24.522696 32.86169 22.899572 34.46925 20.83434 34.82667C 18.769106 35.18409 16.70014 34.215508 15.651915 32.400524C 14.603689 30.58554 14.798706 28.309418 16.1404 26.699202C 17.482094 25.088985 19.68567 24.48647 21.660002 25.189999L21.660002 25.189999L21.660002 19.689999C 21.097994 19.597912 20.529503 19.551094 19.960001 19.55C 15.769772 19.55 11.99214 22.074131 10.388608 25.945398C 8.785077 29.816666 9.671433 34.272686 12.634373 37.235626C 15.597311 40.198563 20.053331 41.084923 23.924599 39.48139C 27.795864 37.87786 30.319998 34.10023 30.32 29.91C 30.318886 29.48544 30.292171 29.061344 30.24 28.64L30.24 28.64L30.24 19.49C 32.681816 21.014942 35.522774 21.777405 38.4 21.68z" stroke="none" fill="#000000" fill-rule="nonzero" />
</g>
</svg>