<?xml version="1.0" encoding="UTF-8"?>
<svg xmlns="http://www.w3.org/2000/svg" xmlns:xlink="http://www.w3.org/1999/xlink" width="32px" height="32px" viewBox="0 0 32 32" version="1.1">
<g id="surface1">
<path style=" stroke:none;fill-rule:nonzero;fill:rgb(0%,0%,0%);fill-opacity:1;" d="M 23.679688 18.386719 C 23.617188 18.359375 21.28125 17.207031 20.867188 17.058594 C 20.699219 17 20.519531 16.941406 20.324219 16.941406 C 20.011719 16.941406 19.746094 17.097656 19.539062 17.40625 C 19.304688 17.75 18.601562 18.574219 18.382812 18.824219 C 18.355469 18.855469 18.316406 18.894531 18.292969 18.894531 C 18.269531 18.894531 17.910156 18.746094 17.800781 18.699219 C 15.296875 17.609375 13.398438 14.996094 13.136719 14.554688 C 13.101562 14.492188 13.101562 14.464844 13.097656 14.464844 C 13.109375 14.429688 13.191406 14.34375 13.234375 14.300781 C 13.363281 14.175781 13.5 14.011719 13.632812 13.851562 C 13.695312 13.773438 13.761719 13.699219 13.824219 13.625 C 14.015625 13.402344 14.101562 13.226562 14.203125 13.023438 L 14.253906 12.917969 C 14.496094 12.4375 14.289062 12.027344 14.222656 11.894531 C 14.167969 11.785156 13.183594 9.410156 13.078125 9.160156 C 12.824219 8.554688 12.492188 8.273438 12.03125 8.273438 C 11.988281 8.273438 12.03125 8.273438 11.851562 8.28125 C 11.632812 8.292969 10.4375 8.449219 9.910156 8.78125 C 9.351562 9.132812 8.402344 10.257812 8.402344 12.234375 C 8.402344 14.015625 9.535156 15.695312 10.019531 16.335938 C 10.03125 16.351562 10.050781 16.382812 10.085938 16.429688 C 11.941406 19.144531 14.257812 21.152344 16.601562 22.089844 C 18.863281 22.992188 19.933594 23.097656 20.539062 23.097656 C 20.796875 23.097656 21 23.078125 21.179688 23.058594 L 21.296875 23.046875 C 22.074219 22.980469 23.792969 22.089844 24.179688 21.007812 C 24.488281 20.152344 24.570312 19.21875 24.367188 18.878906 C 24.226562 18.648438 23.984375 18.535156 23.679688 18.386719 Z M 23.679688 18.386719 "/>
<path style=" stroke:none;fill-rule:nonzero;fill:rgb(0%,0%,0%);fill-opacity:1;" d="M 16.285156 0 C 7.617188 0 0.566406 6.996094 0.566406 15.597656 C 0.566406 18.382812 1.3125 21.105469 2.722656 23.488281 L 0.0234375 31.449219 C -0.0273438 31.597656 0.0078125 31.761719 0.117188 31.875 C 0.199219 31.957031 0.304688 32 0.414062 32 C 0.457031 32 0.5 31.992188 0.542969 31.980469 L 8.84375 29.34375 C 11.117188 30.554688 13.683594 31.195312 16.285156 31.195312 C 24.949219 31.195312 32 24.199219 32 15.597656 C 32 6.996094 24.949219 0 16.285156 0 Z M 16.285156 27.949219 C 13.839844 27.949219 11.46875 27.242188 9.433594 25.90625 C 9.363281 25.859375 9.285156 25.835938 9.207031 25.835938 C 9.164062 25.835938 9.121094 25.84375 9.078125 25.855469 L 4.921875 27.179688 L 6.261719 23.21875 C 6.304688 23.089844 6.285156 22.949219 6.203125 22.839844 C 4.652344 20.71875 3.835938 18.214844 3.835938 15.597656 C 3.835938 8.789062 9.417969 3.25 16.285156 3.25 C 23.148438 3.25 28.730469 8.789062 28.730469 15.597656 C 28.730469 22.40625 23.148438 27.949219 16.285156 27.949219 Z M 16.285156 27.949219 "/>
</g>
</svg>
